<?xml version="1.0" encoding="UTF-8"?>
<svg id="Layer_1" data-name="Layer 1" xmlns="http://www.w3.org/2000/svg" version="1.1" viewBox="0 0 336 138.8">
  <defs>
    <style>
      .cls-1 {
        fill: #000;
      }

      .cls-1, .cls-2, .cls-3, .cls-4 {
        stroke-width: 0px;
      }

      .cls-2 {
        fill: #f21b1c;
      }

      .cls-3 {
        fill: #fd0;
      }

      .cls-5 {
        fill: none;
        stroke: #000;
        stroke-miterlimit: 10;
        stroke-width: .8px;
      }

      .cls-4 {
        fill: #0a0203;
      }
    </style>
  </defs>
  <g>
    <path class="cls-4" d="M100.5,42.2l-5,10.9c-.6,1.3-.8,1.6-.8,2.2,0,.9.7,1.4,2.5,1.6v1.4h-12.7v-1.4c2.2-.3,2.8-1,5-5.4L110.5,6.1c.7-1.5.8-1.8.8-2.2,0-.9-.5-1.3-2.1-1.6V.9h14v1.4c-1.6.4-2.1.9-2.1,1.7s0,.7.8,2.2l20.1,43.7c2.8,6.3,2.9,6.4,6,7.1v1.4h-13.6v-1.4c1.6-.2,2.5-.8,2.5-1.8s-.2-.9-.9-2.7l-4.7-10.2h-30.7ZM115.8,8.4l-12.8,28.4h25.8l-12.9-28.4Z"/>
    <path class="cls-4" d="M160.4,18.6v35c0,2.3.5,3,2.7,3.6v1.1h-10.3v-1.1c2.2-.6,2.7-1.3,2.7-3.6V15.9c0-2.3-.5-3-2.7-3.6v-1.1h14.3v1.1c-1.5.4-2.2,1-2.2,1.9s0,.4,1.1,2.6l14.8,30.1,15-30.1c.8-1.5,1-2.2,1-2.7,0-.9-.7-1.5-2.2-1.9v-1.1h14.5v1.1c-2.2.6-2.7,1.3-2.7,3.6v37.6c0,2.3.5,3,2.7,3.6v1.1h-11.4v-1.1c2.2-.6,2.7-1.3,2.7-3.6V18.6l-20.1,39.7-20-39.7Z"/>
    <path class="cls-4" d="M228,53.7h29.1c2.4,0,3.1-.5,3.6-2.7h1.2v9.9h-1.2c-.5-2.2-1.2-2.7-3.6-2.7h-37.8v-1.1c2.2-.6,2.7-1.3,2.7-3.6V15.9c0-2.3-.5-3-2.7-3.6v-1.1h37.5c2.3,0,3-.5,3.6-2.7h1.1v9.9h-1.1c-.6-2.2-1.3-2.7-3.6-2.7h-28.9v15.9h18.4c2.3,0,3-.5,3.6-2.7h1.1v9.9h-1.1c-.6-2.2-1.3-2.7-3.6-2.7h-18.4v17.5Z"/>
    <path class="cls-4" d="M311.2,22.8l-1-.5c.2-1.1.2-1.3.2-1.6,0-.9-.6-1.4-2.8-2.5-3.5-1.9-9-3.1-14-3.1-9.6,0-16,3.9-16,9.5s1.7,5.1,4.3,5.9c2.7.9,4,1,14.2,1.4,8.4.3,12.1.9,15.2,2.8,3.3,1.8,5.3,5.6,5.3,9.7,0,9-8.8,15-22.3,15s-10-.9-15.2-3.1c-2.1-.8-5.3-2.3-6.4-2.9-.5-.3-.8-.4-1-.4-.5,0-.8.2-1.9,1.6l-.9-.7,5.3-9,1,.6c0,.3-.2.6-.3.7,0,.4-.2.8-.2,1,0,.9,1.2,1.9,4.3,3.4,4.8,2.6,9.8,3.9,15,3.9,10.2,0,16.8-3.9,16.8-9.8s-1.6-5-4.1-5.9c-2.3-.9-4-1-11.9-1.4-9.2-.3-12-.7-15.5-2-4.7-1.7-7.5-5.7-7.5-10.7,0-8.8,8.8-14.6,22.1-14.6s11.4,1.1,17.7,4c1.1.5,1.3.6,1.6.6.4,0,.9-.5,1.5-1.6l1,.5-4.6,9.2Z"/>
  </g>
  <g>
    <path class="cls-4" d="M88.5,99h15.7c1,0,1.3-.2,1.5-1.1h.6v4.6h-.6c-.2-.9-.6-1.1-1.5-1.1h-19.7v-.6c.9-.3,1.1-.5,1.1-1.5v-20.4c0-1-.2-1.3-1.1-1.5v-.6h19.5c1,0,1.3-.2,1.5-1.1h.6v4.6h-.6c-.2-.9-.5-1.1-1.5-1.1h-15.5v8.4h10.1c1,0,1.3-.2,1.5-1.1h.6v4.6h-.6c-.2-.9-.5-1.1-1.5-1.1h-10.1v9.2Z"/>
    <path class="cls-4" d="M113.8,99.3c0,1,.2,1.3,1.1,1.5v.5h-4.4v-.5c.9-.3,1.1-.6,1.1-1.5v-16.1c0-1-.2-1.3-1.1-1.5v-.5h6.5v.5c-.6.2-.9.5-.9.9s.2.8.7,1.3l11.9,13.3v-14c0-1-.2-1.3-1.1-1.5v-.5h4.4v.5c-.9.3-1.1.6-1.1,1.5v16.1c0,1,.2,1.3,1.1,1.5v.5h-5.3v-.5c.7-.2,1-.3,1-.7s0-.5-.9-1.4l-13-14.4v15Z"/>
    <path class="cls-4" d="M155.3,87l-.4-.3c.1-.4.2-.7.2-.8,0-.3-.4-.7-1.7-1.4-1.8-1.1-3.8-1.6-5.9-1.6-5.3,0-9.1,3.6-9.1,8.5s3.8,8.3,9.3,8.3,5.5-.9,7.2-2.4v-3.7h-4.5c-1,0-1.3.2-1.6,1.1h-.5v-4.2h.5c.3.9.6,1.1,1.6,1.1h7.9v.5c-.9.2-1.1.6-1.1,1.5v2.1c0,1,.2,1.3,1.1,1.5v.4c-3.1,2.7-6.6,4-10.9,4s-5.9-.9-8-2.6c-2.3-2-3.6-4.9-3.6-7.8,0-6,5-10.5,11.8-10.5s5.1.6,8.5,2.5c.3.2.4.2.6.2.2,0,.3,0,.8-.7l.4.3-2.5,4Z"/>
    <path class="cls-4" d="M166.8,101.3h-4.9v-.5c.9-.3,1.1-.6,1.1-1.5v-16.1c0-1-.2-1.3-1.1-1.5v-.5h4.9v.5c-.9.3-1.1.6-1.1,1.5v16.1c0,1,.2,1.3,1.1,1.5v.5Z"/>
    <path class="cls-4" d="M174.4,99.3c0,1,.2,1.3,1.1,1.5v.5h-4.4v-.5c.9-.3,1.1-.6,1.1-1.5v-16.1c0-1-.2-1.3-1.1-1.5v-.5h6.5v.5c-.6.2-.9.5-.9.9s.2.8.7,1.3l11.9,13.3v-14c0-1-.2-1.3-1.1-1.5v-.5h4.4v.5c-.9.3-1.1.6-1.1,1.5v16.1c0,1,.2,1.3,1.1,1.5v.5h-5.3v-.5c.7-.2,1-.3,1-.7s0-.5-.9-1.4l-13-14.4v15Z"/>
    <path class="cls-4" d="M200.6,99.3h12.5c1,0,1.3-.2,1.5-1.1h.5v4.2h-.5c-.2-.9-.5-1.1-1.5-1.1h-16.2v-.5c.9-.3,1.1-.6,1.1-1.5v-16.1c0-1-.2-1.3-1.1-1.5v-.5h16.1c1,0,1.3-.2,1.5-1.1h.5v4.2h-.5c-.3-.9-.6-1.1-1.5-1.1h-12.3v6.8h7.9c1,0,1.3-.2,1.5-1.1h.5v4.2h-.5c-.3-.9-.6-1.1-1.5-1.1h-7.9v7.5Z"/>
    <path class="cls-4" d="M222.6,99.3h12.5c1,0,1.3-.2,1.5-1.1h.5v4.2h-.5c-.2-.9-.5-1.1-1.5-1.1h-16.2v-.5c.9-.3,1.1-.6,1.1-1.5v-16.1c0-1-.2-1.3-1.1-1.5v-.5h16.1c1,0,1.3-.2,1.5-1.1h.5v4.2h-.5c-.3-.9-.6-1.1-1.5-1.1h-12.3v6.8h7.9c1,0,1.3-.2,1.5-1.1h.5v4.2h-.5c-.3-.9-.6-1.1-1.5-1.1h-7.9v7.5Z"/>
    <path class="cls-4" d="M244.6,99.3c0,1,.2,1.3,1.1,1.5v.5h-4.9v-.5c.9-.3,1.1-.6,1.1-1.5v-16.1c0-1-.2-1.3-1.1-1.5v-.5h11.9c2.8,0,4.3.3,5.6,1.3,1.4,1,2.1,2.5,2.1,4.3,0,3.1-2,4.9-5.7,5.3l5.1,8c.4.6.6.7,1.4.8v.4h-5v-.5c.5-.1.7-.2.7-.4s-.1-.5-.4-.9l-4.6-7.3h-7.3v7.1ZM252.2,90.2c2.5,0,3.5-.1,4.3-.6.9-.5,1.4-1.5,1.4-2.8s-.5-2.2-1.3-2.8c-.9-.6-2-.9-4.1-.9h-8v7.1h7.7Z"/>
    <path class="cls-4" d="M269.3,101.3h-4.9v-.5c.9-.3,1.1-.6,1.1-1.5v-16.1c0-1-.2-1.3-1.1-1.5v-.5h4.9v.5c-.9.3-1.1.6-1.1,1.5v16.1c0,1,.2,1.3,1.1,1.5v.5Z"/>
    <path class="cls-4" d="M276.9,99.3c0,1,.2,1.3,1.1,1.5v.5h-4.4v-.5c.9-.3,1.1-.6,1.1-1.5v-16.1c0-1-.2-1.3-1.1-1.5v-.5h6.5v.5c-.6.2-.9.5-.9.9s.2.8.7,1.3l11.9,13.3v-14c0-1-.2-1.3-1.1-1.5v-.5h4.4v.5c-.9.3-1.1.6-1.1,1.5v16.1c0,1,.2,1.3,1.1,1.5v.5h-5.3v-.5c.7-.2,1-.3,1-.7s0-.5-.9-1.4l-13-14.4v15Z"/>
    <path class="cls-4" d="M318.4,87l-.4-.3c.1-.4.2-.7.2-.8,0-.3-.4-.7-1.7-1.4-1.8-1.1-3.8-1.6-5.9-1.6-5.3,0-9.1,3.6-9.1,8.5s3.8,8.3,9.3,8.3,5.5-.9,7.2-2.4v-3.7h-4.5c-1,0-1.3.2-1.6,1.1h-.5v-4.2h.5c.3.9.6,1.1,1.6,1.1h7.9v.5c-.9.2-1.1.6-1.1,1.5v2.1c0,1,.2,1.3,1.1,1.5v.4c-3.1,2.7-6.6,4-10.9,4s-5.9-.9-8-2.6c-2.3-2-3.6-4.9-3.6-7.8,0-6,5-10.5,11.8-10.5s5.1.6,8.5,2.5c.3.2.4.2.6.2.2,0,.3,0,.8-.7l.4.3-2.5,4Z"/>
  </g>
  <g>
    <path class="cls-2" d="M320.9,67.3c.4-.2.7-.6,1-1H84.5v3.4h238.9c-1.2-.6-2.4-1-3.7-1.4l1.2-1Z"/>
    <path class="cls-2" d="M333.2,67.3c-.2-.2-.4-.5-.4-.8,0-.3.2-.5.3-.8.4-.6.8-1.2,1.2-1.8-1.2.9-3.1.6-4.2-.5-1.1-1.1-1.3-2.8-.8-4.3-1,.9-1.9,1.7-2.9,2.6-.5.5-1.2,1-1.9.9-.5,0-1-.4-1.3-.7-.7-.6-1.2-1.4-1.5-2.2,0,.9.2,1.8.4,2.7.2.9.4,1.8.2,2.7,0,.4-.2.9-.4,1.2-.2.4-.6.8-1,1l-1.2,1c1.3.4,2.5.8,3.7,1.4.1,0,.3.1.4.2.5.3,1,.7,1.1,1.2.1.4,0,.9-.1,1.3-.4,1.3-.8,2.6-1.1,3.8.8-.8,1.6-1.7,2.6-2.3,1-.6,2.2-.9,3.4-.6.8.2,1.6.9,2,1.7-.1-1-.8-1.9-1.3-2.9-.1-.2-.2-.5-.2-.8,0-.2.1-.5.3-.7.6-.8,1.7-1,2.7-.9,1,.1,1.9.4,2.9.3-1-.9-1.9-1.9-2.8-3Z"/>
  </g>
  <path class="cls-4" d="M54.9,102.4s-1.4-49.4,28.7-102.4h-3.7s-31.3,49.3-33.1,102.4h8.1Z"/>
  <path class="cls-4" d="M59.9,0S15.9,47.5,10.6,102.4H1.7S12.5,44.8,57,0h2.9Z"/>
  <path class="cls-3" d="M24.7,102.4h6.7s.4-15.8,6.8-38h-4.2c-3.7,11.2-6.9,23.9-9.2,38Z"/>
  <path class="cls-3" d="M38.9,50.8h3.8c2.6-7,5.8-14.5,9.7-22h-3.2c-3.3,6.2-6.9,13.6-10.2,22Z"/>
  <path class="cls-3" d="M68.7,2.6h-2.3s-3.8,4.2-9.3,12.6h3c2.6-4.2,5.5-8.4,8.6-12.6Z"/>
  <line class="cls-5" x1="1.7" y1="111.9" x2="336" y2="111.9"/>
  <g>
    <path class="cls-1" d="M37.6,131.1h-6.1l-1.4,3.7h-1.1l5.1-13.3h1l5,13.3h-1.1l-1.4-3.7ZM31.8,130.1h5.4l-2.6-7.2h0l-2.7,7.2Z"/>
    <path class="cls-1" d="M46.7,134.8v-13.3h3.9c1.6,0,3,.5,4,1.6s1.6,2.5,1.6,4.2v1.7c0,1.7-.5,3.1-1.6,4.2s-2.4,1.6-4,1.6h-3.9ZM47.8,122.5v11.4h2.8c1.3,0,2.4-.5,3.2-1.4.8-.9,1.3-2.1,1.3-3.5v-1.7c0-1.4-.4-2.5-1.3-3.5s-1.9-1.4-3.2-1.4h-2.8Z"/>
    <path class="cls-1" d="M59.9,122.1h-1.1v-1.5h1.1v1.5ZM59.9,134.8h-1.1v-9.9h1.1v9.9Z"/>
    <path class="cls-1" d="M65.7,132.3l.3,1.2h0l.3-1.2,2.7-7.4h1.1l-3.8,9.9h-.9l-3.8-9.9h1.1l2.7,7.4Z"/>
    <path class="cls-1" d="M73.3,122.1h-1.1v-1.5h1.1v1.5ZM73.3,134.8h-1.1v-9.9h1.1v9.9Z"/>
    <path class="cls-1" d="M82.2,132.3c0-.5-.2-.9-.6-1.2-.4-.3-1.1-.6-2.1-.8-1.2-.3-2.1-.6-2.6-1-.6-.4-.8-1-.8-1.8s.3-1.4,1-1.9c.6-.5,1.5-.8,2.5-.8s2,.3,2.6.8c.7.6,1,1.2.9,2.1h0c0,0-1,0-1,0,0-.5-.2-1-.7-1.4-.5-.4-1.1-.6-1.9-.6s-1.4.2-1.8.5c-.4.3-.6.7-.6,1.2s.2.8.5,1.1,1,.6,2.1.8c1.2.3,2.1.6,2.6,1.1.6.5.9,1.1.9,1.9s-.3,1.5-1,2c-.7.5-1.5.8-2.6.8s-2.1-.3-2.8-.9c-.7-.6-1-1.3-1-2h0c0,0,1,0,1,0,0,.7.3,1.2.9,1.5.5.3,1.2.5,1.9.5s1.4-.2,1.9-.5c.5-.3.7-.8.7-1.3Z"/>
    <path class="cls-1" d="M87,122.1h-1.1v-1.5h1.1v1.5ZM87,134.8h-1.1v-9.9h1.1v9.9Z"/>
    <path class="cls-1" d="M89.5,129.7c0-1.5.4-2.6,1.2-3.6s1.9-1.4,3.2-1.4,2.4.5,3.2,1.4,1.2,2.1,1.2,3.6v.3c0,1.5-.4,2.7-1.2,3.6-.8.9-1.9,1.4-3.2,1.4s-2.4-.5-3.2-1.4-1.2-2.1-1.2-3.6v-.3ZM90.6,130c0,1.1.3,2.1.9,2.9s1.4,1.2,2.4,1.2,1.8-.4,2.4-1.2.9-1.7.9-2.9v-.3c0-1.1-.3-2.1-.9-2.9-.6-.8-1.4-1.2-2.4-1.2s-1.8.4-2.4,1.2c-.6.8-.9,1.7-.9,2.9v.3Z"/>
    <path class="cls-1" d="M101.5,124.9v1.7c.4-.6.8-1.1,1.4-1.4.5-.3,1.2-.5,1.9-.5,1.1,0,1.9.3,2.4,1,.6.7.8,1.7.8,3.1v6h-1.1v-6c0-1.1-.2-1.9-.6-2.4s-1-.7-1.8-.7-1.4.2-1.9.6c-.5.4-.8.9-1,1.6v6.9h-1.1v-9.9h1Z"/>
    <path class="cls-1" d="M114.8,129.7c0-1.5.4-2.6,1.2-3.6s1.9-1.4,3.2-1.4,2.4.5,3.2,1.4,1.2,2.1,1.2,3.6v.3c0,1.5-.4,2.7-1.2,3.6-.8.9-1.9,1.4-3.2,1.4s-2.4-.5-3.2-1.4-1.2-2.1-1.2-3.6v-.3ZM115.9,130c0,1.1.3,2.1.9,2.9s1.4,1.2,2.4,1.2,1.8-.4,2.4-1.2.9-1.7.9-2.9v-.3c0-1.1-.3-2.1-.9-2.9-.6-.8-1.4-1.2-2.4-1.2s-1.8.4-2.4,1.2c-.6.8-.9,1.7-.9,2.9v.3Z"/>
    <path class="cls-1" d="M126.7,134.8v-9h-1.6v-.9h1.6v-1.4c0-1,.2-1.8.7-2.3.5-.5,1.2-.8,2.1-.8s.4,0,.6,0,.4,0,.6.1v.9c-.3,0-.4,0-.6,0s-.3,0-.5,0c-.6,0-1.1.2-1.4.6-.3.4-.5.9-.5,1.6v1.4h2.4v.9h-2.4v9h-1.1Z"/>
    <path class="cls-1" d="M145.8,123.3h-4v11.5h-2.2v-11.5h-4v-1.8h10.3v1.8Z"/>
    <path class="cls-1" d="M151.5,126.9h-1c-.4,0-.8,0-1.1.2s-.5.4-.7.8v6.9h-2.2v-9.9h2v1.4c.4-.5.7-.9,1.1-1.2.4-.3.8-.4,1.4-.4s.3,0,.4,0,.2,0,.3,0l-.3,2.1Z"/>
    <path class="cls-1" d="M159,134.8c0-.2-.1-.5-.2-.7,0-.2,0-.5-.1-.7-.3.5-.7.9-1.2,1.2-.5.3-1.1.5-1.7.5-1,0-1.8-.3-2.4-.8-.6-.5-.8-1.3-.8-2.2s.4-1.7,1.1-2.2c.8-.5,1.8-.8,3.2-.8h1.7v-.9c0-.5-.2-.9-.5-1.2s-.7-.4-1.3-.4-.9.1-1.2.4c-.3.2-.4.6-.4.9h-2.1c0-.8.3-1.5,1-2.1.7-.6,1.7-.9,2.9-.9s2.1.3,2.8.9c.7.6,1.1,1.4,1.1,2.5v4.4c0,.4,0,.8,0,1.2,0,.4.1.7.3,1.1h-2.2ZM156.3,133.2c.6,0,1.1-.1,1.5-.4.4-.3.7-.6.9-1v-1.5h-1.8c-.6,0-1.2.2-1.5.5-.4.3-.5.7-.5,1.1s.1.7.4.9c.2.2.6.3,1.1.3Z"/>
    <path class="cls-1" d="M165.2,124.9v1.4c.5-.5.9-.9,1.3-1.2s1-.4,1.7-.4c1,0,1.8.3,2.4.9s.9,1.6.9,2.9v6.2h-2.2v-6.2c0-.7-.2-1.3-.5-1.6-.3-.3-.8-.5-1.4-.5s-.8,0-1.2.3c-.3.2-.6.5-.8.8v7.2h-2.2v-9.9h2Z"/>
    <path class="cls-1" d="M179.4,132.1c0-.3-.1-.6-.4-.8-.3-.2-.8-.4-1.6-.6-1.2-.2-2.1-.6-2.7-1.1-.6-.5-.9-1.1-.9-1.9s.4-1.5,1.1-2.1,1.6-.9,2.8-.9,2.2.3,2.9.9c.7.6,1,1.3,1,2.2h0c0,0-2.1,0-2.1,0,0-.4-.2-.8-.5-1-.3-.3-.7-.4-1.3-.4s-.9.1-1.2.4c-.3.2-.4.5-.4.9s.1.6.4.8c.3.2.8.4,1.6.5,1.2.3,2.2.6,2.8,1.1.6.5.9,1.1.9,1.9s-.4,1.6-1.1,2.2c-.7.6-1.7.8-2.9.8s-2.3-.3-3-1c-.7-.7-1.1-1.4-1.1-2.3h0c0,0,2.1,0,2.1,0,0,.6.2,1,.6,1.3.4.3.9.4,1.4.4s1-.1,1.3-.3c.3-.2.5-.5.5-.9Z"/>
    <path class="cls-1" d="M192.9,123.3h-4v11.5h-2.2v-11.5h-4v-1.8h10.3v1.8Z"/>
    <path class="cls-1" d="M197.7,135c-1.4,0-2.5-.5-3.3-1.4-.8-.9-1.2-2.1-1.2-3.5v-.4c0-1.4.4-2.6,1.2-3.6.8-.9,1.9-1.4,3.1-1.4,1.3,0,2.4.4,3.1,1.2.7.8,1.1,1.9,1.1,3.2v1.3h-6.2c0,.8.3,1.5.7,2,.4.5,1,.7,1.8.7s1.1,0,1.5-.2c.4-.1.8-.4,1.2-.6l.7,1.5c-.4.3-.9.6-1.5.8-.6.2-1.3.3-2.1.3ZM197.5,126.5c-.5,0-1,.2-1.4.7-.4.4-.6,1-.7,1.7h0s3.9,0,3.9,0v-.2c0-.6-.2-1.1-.5-1.5-.3-.4-.8-.6-1.4-.6Z"/>
    <path class="cls-1" d="M207.5,133.2c.5,0,1-.2,1.4-.5.4-.3.6-.7.6-1.2h2c0,1-.3,1.8-1.1,2.4s-1.7,1-2.8,1-2.6-.5-3.3-1.4c-.8-.9-1.2-2.1-1.2-3.6v-.3c0-1.4.4-2.6,1.2-3.6.8-.9,1.9-1.4,3.3-1.4s2.2.3,2.9,1c.7.7,1.1,1.6,1.1,2.6h0c0,0-2,0-2,0,0-.5-.2-1-.5-1.4-.4-.4-.8-.6-1.4-.6-.8,0-1.4.3-1.8.9-.3.6-.5,1.4-.5,2.3v.3c0,.9.2,1.7.5,2.3.3.6.9.9,1.8.9Z"/>
    <path class="cls-1" d="M215.4,126.2c.3-.5.7-.8,1.2-1.1.5-.3,1-.4,1.6-.4,1,0,1.9.3,2.5,1,.6.7.9,1.7.9,3.1v6h-2.2v-6c0-.8-.2-1.3-.5-1.7-.3-.3-.8-.5-1.4-.5s-.8,0-1.2.3-.6.4-.9.7v7.2h-2.2v-14.3h2.2v5.6Z"/>
    <path class="cls-1" d="M236.7,131.6c0-.7-.3-1.3-.8-1.8-.5-.5-1.5-.9-2.8-1.2-1.5-.4-2.6-.8-3.3-1.4-.7-.6-1.1-1.4-1.1-2.4s.4-1.8,1.3-2.5c.8-.6,1.9-1,3.2-1s2.5.4,3.3,1.1c.8.8,1.2,1.7,1.2,2.8h0c0,0-1,0-1,0,0-.9-.3-1.6-.9-2.2-.6-.6-1.5-.9-2.6-.9s-1.9.2-2.5.7c-.6.5-.9,1.1-.9,1.8s.3,1.2.8,1.7c.6.4,1.5.8,2.9,1.2,1.4.4,2.5.9,3.3,1.5s1.1,1.4,1.1,2.5-.4,1.9-1.3,2.5c-.9.6-2,.9-3.3.9s-2.5-.3-3.5-1c-1-.7-1.5-1.6-1.4-2.9h0c0,0,1,0,1,0,0,1,.4,1.8,1.2,2.3s1.7.7,2.7.7,1.9-.2,2.6-.7c.6-.5,1-1.1,1-1.8Z"/>
    <path class="cls-1" d="M242.8,132.1l.3,1.2h0l3-8.4h1.2l-4.3,11.5c-.3.7-.6,1.2-1,1.7-.4.5-1,.7-1.8.7s-.3,0-.5,0-.3,0-.4,0v-.9c.2,0,.3,0,.5,0,.2,0,.3,0,.4,0,.5,0,.9-.2,1.1-.5.3-.3.5-.8.7-1.3l.5-1.3-3.8-9.8h1.2l2.7,7.2Z"/>
    <path class="cls-1" d="M255.1,132.3c0-.5-.2-.9-.6-1.2s-1.1-.6-2.1-.8c-1.2-.3-2.1-.6-2.6-1-.6-.4-.8-1-.8-1.8s.3-1.4,1-1.9c.6-.5,1.5-.8,2.5-.8s2,.3,2.6.8c.7.6,1,1.2.9,2.1h0c0,0-1,0-1,0,0-.5-.2-1-.7-1.4-.5-.4-1.1-.6-1.9-.6s-1.4.2-1.8.5c-.4.3-.6.7-.6,1.2s.2.8.5,1.1,1,.6,2.1.8c1.2.3,2.1.6,2.6,1.1s.9,1.1.9,1.9-.3,1.5-1,2c-.7.5-1.5.8-2.6.8s-2.1-.3-2.8-.9c-.7-.6-1-1.3-1-2h0c0,0,1,0,1,0,0,.7.3,1.2.9,1.5.5.3,1.2.5,1.9.5s1.4-.2,1.9-.5c.5-.3.7-.8.7-1.3Z"/>
    <path class="cls-1" d="M260.4,122.4v2.5h2.2v.9h-2.2v6.4c0,.6.1,1.1.4,1.4.2.3.5.4.9.4s.3,0,.5,0c.2,0,.4,0,.6,0l.2.8c-.2,0-.4.1-.7.2-.3,0-.5,0-.8,0-.7,0-1.2-.2-1.6-.7s-.6-1.1-.6-2.1v-6.4h-1.7v-.9h1.7v-2.5h1.1Z"/>
    <path class="cls-1" d="M268.6,135c-1.2,0-2.3-.5-3.1-1.4-.8-.9-1.2-2.1-1.2-3.5v-.5c0-1.4.4-2.6,1.2-3.5.8-.9,1.8-1.4,3-1.4s2.2.4,2.9,1.2c.7.8,1,1.8,1,3.1v.9h-7v.3c0,1.1.3,2,.9,2.8.6.7,1.4,1.1,2.3,1.1s1.3,0,1.7-.3c.5-.2.9-.5,1.2-.8l.5.8c-.4.4-.8.7-1.4.9s-1.2.3-2,.3ZM268.5,125.7c-.8,0-1.5.3-2,.9-.5.6-.9,1.4-1,2.3h0s5.8,0,5.8,0v-.3c0-.9-.3-1.6-.8-2.2-.5-.6-1.2-.9-2.1-.9Z"/>
    <path class="cls-1" d="M275.5,124.9v1.6c.4-.6.8-1,1.4-1.3.5-.3,1.2-.5,1.9-.5s1.4.2,1.9.5.9.9,1.1,1.7c.3-.7.7-1.2,1.3-1.6.6-.4,1.2-.6,2-.6s1.9.4,2.4,1.1.9,1.8.9,3.3v5.8h-1.1v-5.8c0-1.2-.2-2.1-.6-2.6-.4-.5-1-.8-1.8-.8s-1.5.3-2,.8c-.5.5-.7,1.2-.9,2,0,0,0,.1,0,.2,0,0,0,.1,0,.2v5.9h-1.1v-5.8c0-1.2-.2-2.1-.7-2.6-.4-.5-1-.8-1.8-.8s-1.4.2-1.8.6c-.5.4-.8.9-1,1.6v7h-1.1v-9.9h1Z"/>
    <path class="cls-1" d="M297,132.3c0-.5-.2-.9-.6-1.2s-1.1-.6-2.1-.8c-1.2-.3-2.1-.6-2.6-1-.6-.4-.8-1-.8-1.8s.3-1.4,1-1.9c.6-.5,1.5-.8,2.5-.8s2,.3,2.6.8c.7.6,1,1.2.9,2.1h0c0,0-1,0-1,0,0-.5-.2-1-.7-1.4-.5-.4-1.1-.6-1.9-.6s-1.4.2-1.8.5c-.4.3-.6.7-.6,1.2s.2.8.5,1.1,1,.6,2.1.8c1.2.3,2.1.6,2.6,1.1s.9,1.1.9,1.9-.3,1.5-1,2c-.7.5-1.5.8-2.6.8s-2.1-.3-2.8-.9c-.7-.6-1-1.3-1-2h0c0,0,1,0,1,0,0,.7.3,1.2.9,1.5.5.3,1.2.5,1.9.5s1.4-.2,1.9-.5c.5-.3.7-.8.7-1.3Z"/>
    <path class="cls-1" d="M301.7,134.7l-1,2.5h-.8l.6-2.5v-1.5h1.1v1.6Z"/>
    <path class="cls-1" d="M310.4,134.8h-1.1v-13.3h1.1v13.3Z"/>
    <path class="cls-1" d="M314.8,124.9v1.7c.4-.6.8-1.1,1.4-1.4s1.2-.5,1.9-.5c1.1,0,1.9.3,2.4,1,.6.7.8,1.7.8,3.1v6h-1.1v-6c0-1.1-.2-1.9-.6-2.4-.4-.5-1-.7-1.8-.7s-1.4.2-1.9.6c-.5.4-.8.9-1,1.6v6.9h-1.1v-9.9h1Z"/>
    <path class="cls-1" d="M327.9,134.1c.7,0,1.4-.2,1.9-.6.6-.4.8-1,.8-1.7h1c0,1-.3,1.7-1.1,2.3-.8.6-1.6.9-2.6.9s-2.4-.5-3.1-1.4c-.7-.9-1.1-2.1-1.1-3.6v-.4c0-1.4.4-2.6,1.1-3.5.7-.9,1.8-1.4,3.1-1.4s2,.3,2.7,1,1.1,1.5,1,2.5h0c0,0-1,0-1,0,0-.8-.3-1.4-.8-1.9-.5-.5-1.2-.7-2-.7s-1.8.4-2.4,1.1c-.5.8-.8,1.7-.8,2.9v.4c0,1.2.3,2.1.8,2.9.5.8,1.3,1.1,2.4,1.1Z"/>
    <path class="cls-1" d="M335.3,134.8h-1.3v-1.5h1.3v1.5Z"/>
  </g>
  <path class="cls-3" d="M9.4,138.8v-11.2h-4v-3.7h12.1v3.7h-4v11.1l9-9c.4-.4.4-1,0-1.4l-10.4-10.4c-.4-.4-1-.4-1.4,0L.3,128.4c-.4.4-.4,1,0,1.4l9.1,9.1Z"/>
</svg>